<?xml version="1.0" encoding="UTF-8"?>
<!DOCTYPE svg  PUBLIC '-//W3C//DTD SVG 1.1//EN'  'http://www.w3.org/Graphics/SVG/1.1/DTD/svg11.dtd'>
<svg clip-rule="evenodd" fill-rule="evenodd" stroke-linejoin="round" stroke-miterlimit="2" version="1.1" viewBox="0 0 512 512" xml:space="preserve" xmlns="http://www.w3.org/2000/svg"><path d="m256 0c141.29 0 256 114.71 256 256s-114.71 256-256 256-256-114.71-256-256 114.71-256 256-256zm153.32 178.98c-3.68-13.769-14.522-24.61-28.29-28.29-24.958-6.688-125.02-6.688-125.02-6.688s-100.07 0-125.02 6.688c-13.765 3.68-24.61 14.521-28.29 28.29-6.685 24.955-6.685 77.024-6.685 77.024s0 52.067 6.685 77.02c3.68 13.769 14.525 24.614 28.29 28.293 24.958 6.685 125.02 6.685 125.02 6.685s100.07 0 125.02-6.685c13.768-3.679 24.61-14.524 28.29-28.293 6.685-24.953 6.685-77.02 6.685-77.02s0-52.069-6.685-77.024zm-185.32 125.02v-96.002l83.137 48.001-83.137 48.001z"/></svg>
